<svg xmlns="http://www.w3.org/2000/svg" viewBox="0 0 64 64" fill="none">
  <path d="M8 12 C4 8, 2 14, 6 18 L14 26" stroke="#dc2626" stroke-width="3.5" stroke-linecap="round"/>
  <path d="M6 18 C2 16, 0 22, 5 24 L14 26" stroke="#dc2626" stroke-width="3.5" stroke-linecap="round"/>
  <path d="M14 26 L22 32" stroke="#dc2626" stroke-width="3.5" stroke-linecap="round"/>
  <path d="M56 12 C60 8, 62 14, 58 18 L50 26" stroke="#dc2626" stroke-width="3.5" stroke-linecap="round"/>
  <path d="M58 18 C62 16, 64 22, 59 24 L50 26" stroke="#dc2626" stroke-width="3.5" stroke-linecap="round"/>
  <path d="M50 26 L42 32" stroke="#dc2626" stroke-width="3.5" stroke-linecap="round"/>
  <ellipse cx="32" cy="38" rx="12" ry="10" fill="#fca5a5" stroke="#dc2626" stroke-width="3"/>
  <circle cx="32" cy="27" r="5" fill="#fecaca" stroke="#dc2626" stroke-width="2.5"/>
  <circle cx="30" cy="25.5" r="1.2" fill="#dc2626"/>
  <circle cx="34" cy="25.5" r="1.2" fill="#dc2626"/>
  <path d="M32 48 L32 52 M28 53 L32 56 L36 53" stroke="#dc2626" stroke-width="2.5" stroke-linecap="round" stroke-linejoin="round"/>
  <path d="M24 40 L16 46 M25 44 L18 50" stroke="#dc2626" stroke-width="2" stroke-linecap="round"/>
  <path d="M40 40 L48 46 M39 44 L46 50" stroke="#dc2626" stroke-width="2" stroke-linecap="round"/>
</svg>
